<svg width="12" height="16" viewBox="0 0 12 16" fill="none" xmlns="http://www.w3.org/2000/svg">
<path d="M0.439 0.44C0.578274 0.300552 0.743664 0.189918 0.925716 0.11442C1.10777 0.0389228 1.30291 4.20407e-05 1.5 0H5.883C8.521 0 10.504 2.182 10.504 4.625C10.5013 5.58716 10.199 6.5246 9.639 7.307C10.716 8.134 11.505 9.427 11.505 11.12C11.504 14.232 8.804 16 6.624 16H1.504C1.10618 16 0.724644 15.842 0.44334 15.5607C0.162035 15.2794 0.00400019 14.8978 0.00400019 14.5L0 1.5C0 1.103 0.158 0.721 0.44 0.44H0.439ZM3.004 6.25H5.884C6.787 6.25 7.504 5.49 7.504 4.625C7.504 3.76 6.785 3 5.884 3H3.002L3.004 6.25ZM3.004 9.25V13H6.624C7.498 13 8.504 12.246 8.504 11.12C8.504 9.99 7.53 9.25 6.624 9.25H3.004Z" fill="black"/>
<path d="M0.439 0.44C0.578274 0.300552 0.743664 0.189918 0.925716 0.11442C1.10777 0.0389228 1.30291 4.20407e-05 1.5 0H5.883C8.521 0 10.504 2.182 10.504 4.625C10.5013 5.58716 10.199 6.5246 9.639 7.307C10.716 8.134 11.505 9.427 11.505 11.12C11.504 14.232 8.804 16 6.624 16H1.504C1.10618 16 0.724644 15.842 0.44334 15.5607C0.162035 15.2794 0.00400019 14.8978 0.00400019 14.5L0 1.5C0 1.103 0.158 0.721 0.44 0.44H0.439ZM3.004 6.25H5.884C6.787 6.25 7.504 5.49 7.504 4.625C7.504 3.76 6.785 3 5.884 3H3.002L3.004 6.25ZM3.004 9.25V13H6.624C7.498 13 8.504 12.246 8.504 11.12C8.504 9.99 7.53 9.25 6.624 9.25H3.004Z" fill="black" fill-opacity="0.2"/>
</svg>
