<svg width="15" height="16" viewBox="0 0 15 16" fill="none" xmlns="http://www.w3.org/2000/svg">
<path d="M14.5049 1.14286C14.5049 1.77464 13.9832 2.28571 13.3382 2.28571H11.1992L6.33931 13.7143H8.67155C9.3165 13.7143 9.83822 14.2254 9.83822 14.8571C9.83822 15.4889 9.3165 16 8.67155 16H1.67155C1.0266 16 0.504883 15.4889 0.504883 14.8571C0.504883 14.2254 1.0266 13.7143 1.67155 13.7143H3.81056L8.67046 2.28571H6.33822C5.69327 2.28571 5.17155 1.77464 5.17155 1.14286C5.17155 0.511072 5.69327 0 6.33822 0H13.3382C13.9835 0 14.5049 0.511429 14.5049 1.14286Z" fill="black"/>
<path d="M14.5049 1.14286C14.5049 1.77464 13.9832 2.28571 13.3382 2.28571H11.1992L6.33931 13.7143H8.67155C9.3165 13.7143 9.83822 14.2254 9.83822 14.8571C9.83822 15.4889 9.3165 16 8.67155 16H1.67155C1.0266 16 0.504883 15.4889 0.504883 14.8571C0.504883 14.2254 1.0266 13.7143 1.67155 13.7143H3.81056L8.67046 2.28571H6.33822C5.69327 2.28571 5.17155 1.77464 5.17155 1.14286C5.17155 0.511072 5.69327 0 6.33822 0H13.3382C13.9835 0 14.5049 0.511429 14.5049 1.14286Z" fill="black" fill-opacity="0.2"/>
</svg>
