<svg width="11" height="19" viewBox="0 0 13 22" fill="none" xmlns="http://www.w3.org/2000/svg">
<path d="M2.49962 2H2.49977L2.49947 1.99462C2.48442 1.71547 2.3688 1.45191 2.1748 1.25829C1.98063 1.06452 1.72252 0.95549 1.45308 0.955253C1.18365 0.955016 0.925358 1.06359 0.730883 1.25703C0.536567 1.45031 0.420529 1.71367 0.405037 1.99279L0.404883 1.99278V1.99833V10.6658C0.404883 12.3704 1.04632 14.0061 2.18965 15.2129C3.33315 16.42 4.88526 17.0992 6.50488 17.0992C8.1245 17.0992 9.67662 16.42 10.8201 15.2129C11.9634 14.0061 12.6049 12.3704 12.6049 10.6658V2C12.6049 1.71011 12.4959 1.43107 12.3003 1.22444C12.1045 1.01763 11.8378 0.900246 11.5584 0.9H11.5583H11.5575C11.2779 0.9 11.011 1.01728 10.815 1.22412C10.6193 1.43077 10.5101 1.70995 10.5101 2V10.6658C10.5101 11.7903 10.0869 12.8676 9.33515 13.6612C8.58355 14.4545 7.56535 14.8992 6.50488 14.8992C5.44442 14.8992 4.42622 14.4545 3.67462 13.6612C2.92284 12.8676 2.49962 11.7903 2.49962 10.6658V2ZM1.45225 18.9V18.8998L1.44625 18.9002C1.17729 18.9163 0.925551 19.0404 0.742151 19.2452C0.558891 19.4497 0.457449 19.7196 0.457228 19.9991C0.457007 20.2787 0.558024 20.5487 0.740954 20.7536C0.924025 20.9587 1.17556 21.0832 1.4445 21.0998L1.44449 21.1H1.45067H11.5575V21.1002L11.5635 21.0998C11.8325 21.0837 12.0842 20.9596 12.2676 20.7548C12.4509 20.5502 12.5523 20.2804 12.5525 20.0009C12.5528 19.7213 12.4517 19.4513 12.2688 19.2464C12.0857 19.0413 11.8342 18.9168 11.5653 18.9002L11.5653 18.9H11.5591H11.5575H1.45225Z" fill="black" stroke="black" stroke-width="0.2"/>
</svg>
